<?xml version="1.0" encoding="UTF-8" standalone="no"?>
<svg
   width="90"
   height="90"
   viewBox="0 0 90 90"
   fill="none"
   version="1.1"
   id="svg134"
   sodipodi:docname="openseablack.svg"
   inkscape:export-filename="openseablack.svg"
   inkscape:export-xdpi="96"
   inkscape:export-ydpi="96"
   xmlns:inkscape="http://www.inkscape.org/namespaces/inkscape"
   xmlns:sodipodi="http://sodipodi.sourceforge.net/DTD/sodipodi-0.dtd"
   xmlns="http://www.w3.org/2000/svg"
   xmlns:svg="http://www.w3.org/2000/svg">
  <defs
     id="defs138" />
  <sodipodi:namedview
     id="namedview136"
     pagecolor="#ffffff"
     bordercolor="#000000"
     borderopacity="0.25"
     inkscape:showpageshadow="2"
     inkscape:pageopacity="0.0"
     inkscape:pagecheckerboard="0"
     inkscape:deskcolor="#d1d1d1"
     showgrid="false" />
  <path
     d="M 45,0 C 20.151,0 0,20.151 0,45 0,69.849 20.151,90 45,90 69.849,90 90,69.849 90,45 90,20.151 69.858,0 45,0 Z M 22.203,46.512 22.392,46.206 34.101,27.891 c 0.171,-0.261 0.576,-0.234 0.702,0.054 1.953,4.383 3.645,9.837 2.853,13.23 -0.333,1.395 -1.26,3.285 -2.304,5.031 -0.135,0.252 -0.279,0.504 -0.441,0.747 -0.072,0.108 -0.198,0.171 -0.333,0.171 H 22.545 c -0.324,0 -0.513,-0.351 -0.342,-0.612 z m 52.173,6.3 c 0,0.171 -0.099,0.315 -0.243,0.378 -0.909,0.387 -4.014,1.818 -5.301,3.609 -3.294,4.581 -5.805,11.133 -11.43,11.133 H 33.948 C 25.632,67.932 18.9,61.173 18.9,52.83 v -0.27 c 0,-0.216 0.18,-0.396 0.405,-0.396 h 13.068 c 0.261,0 0.45,0.234 0.432,0.495 -0.099,0.846 0.063,1.719 0.468,2.511 0.774,1.575 2.385,2.556 4.122,2.556 h 6.471 v -5.049 h -6.399 c -0.324,0 -0.522,-0.378 -0.333,-0.648 0.072,-0.108 0.144,-0.216 0.234,-0.342 0.603,-0.864 1.467,-2.196 2.331,-3.717 0.585,-1.026 1.152,-2.124 1.611,-3.222 0.09,-0.198 0.162,-0.405 0.243,-0.603 0.126,-0.351 0.252,-0.684 0.342,-1.008 0.09,-0.279 0.171,-0.567 0.243,-0.837 0.216,-0.936 0.306,-1.926 0.306,-2.952 0,-0.405 -0.018,-0.828 -0.054,-1.224 -0.018,-0.441 -0.072,-0.882 -0.126,-1.323 -0.036,-0.387 -0.108,-0.774 -0.18,-1.17 -0.099,-0.585 -0.225,-1.17 -0.369,-1.755 l -0.054,-0.225 c -0.108,-0.405 -0.207,-0.783 -0.333,-1.188 -0.369,-1.26 -0.783,-2.493 -1.233,-3.645 -0.162,-0.459 -0.342,-0.9 -0.531,-1.332 -0.27,-0.666 -0.549,-1.269 -0.801,-1.836 -0.135,-0.261 -0.243,-0.495 -0.351,-0.738 -0.126,-0.27 -0.252,-0.54 -0.387,-0.801 -0.09,-0.198 -0.198,-0.387 -0.27,-0.567 l -0.792,-1.458 c -0.108,-0.198 0.072,-0.441 0.288,-0.378 l 4.95,1.341 h 0.018 c 0.009,0 0.009,0 0.018,0 l 0.648,0.189 0.72,0.198 0.261,0.072 V 20.574 C 43.866,19.152 45,18 46.413,18 c 0.702,0 1.341,0.288 1.791,0.756 0.459,0.468 0.747,1.107 0.747,1.818 v 4.365 l 0.531,0.144 c 0.036,0.018 0.081,0.036 0.117,0.063 0.126,0.09 0.315,0.234 0.549,0.414 0.189,0.144 0.387,0.324 0.621,0.513 0.477,0.387 1.053,0.882 1.674,1.449 0.162,0.144 0.324,0.288 0.477,0.441 0.801,0.747 1.701,1.62 2.565,2.592 0.243,0.279 0.477,0.549 0.72,0.846 0.234,0.297 0.495,0.585 0.711,0.873 0.297,0.387 0.603,0.792 0.882,1.215 0.126,0.198 0.279,0.405 0.396,0.603 0.36,0.531 0.666,1.08 0.963,1.629 0.126,0.252 0.252,0.531 0.36,0.801 0.333,0.738 0.594,1.485 0.756,2.241 0.054,0.162 0.09,0.333 0.108,0.495 v 0.036 c 0.054,0.216 0.072,0.45 0.09,0.693 0.072,0.765 0.036,1.539 -0.126,2.313 -0.072,0.324 -0.162,0.63 -0.27,0.963 -0.117,0.315 -0.225,0.639 -0.369,0.954 -0.279,0.639 -0.603,1.287 -0.99,1.881 -0.126,0.225 -0.279,0.459 -0.423,0.684 -0.162,0.234 -0.333,0.459 -0.477,0.675 -0.207,0.279 -0.423,0.567 -0.648,0.828 -0.198,0.27 -0.396,0.54 -0.621,0.783 -0.306,0.369 -0.603,0.711 -0.918,1.044 -0.18,0.216 -0.378,0.441 -0.585,0.639 -0.198,0.225 -0.405,0.423 -0.585,0.603 -0.315,0.315 -0.567,0.549 -0.783,0.756 l -0.513,0.459 c -0.072,0.072 -0.171,0.108 -0.27,0.108 h -3.942 v 5.049 h 4.959 c 1.107,0 2.16,-0.387 3.015,-1.116 0.288,-0.252 1.557,-1.35 3.06,-3.006 0.054,-0.063 0.117,-0.099 0.189,-0.117 l 13.689,-3.96 c 0.261,-0.072 0.513,0.117 0.513,0.387 z"
     fill="white"
     id="path132"
     style="fill:#000000"
     inkscape:export-filename="../Desktop/Earthbarrier/Art/openseablack.svg"
     inkscape:export-xdpi="96"
     inkscape:export-ydpi="96" />
</svg>
